<svg xmlns="http://www.w3.org/2000/svg" viewBox="0 0 512 512" width="512" height="512">
  <defs>
    <linearGradient id="logo-disc-top" x1="0" y1="0" x2="0" y2="1">
      <stop offset="0%" stop-color="#7dd3fc"/>
      <stop offset="100%" stop-color="#38bdf8"/>
    </linearGradient>
    <linearGradient id="logo-disc-mid" x1="0" y1="0" x2="0" y2="1">
      <stop offset="0%" stop-color="#38bdf8"/>
      <stop offset="100%" stop-color="#0ea5e9"/>
    </linearGradient>
    <linearGradient id="logo-disc-bot" x1="0" y1="0" x2="0" y2="1">
      <stop offset="0%" stop-color="#0ea5e9"/>
      <stop offset="100%" stop-color="#0284c7"/>
    </linearGradient>
    <linearGradient id="logo-body" x1="0" y1="0" x2="1" y2="0">
      <stop offset="0%" stop-color="#0369a1"/>
      <stop offset="50%" stop-color="#0284c7"/>
      <stop offset="100%" stop-color="#075985"/>
    </linearGradient>
  </defs>

  <!-- Subtle inner glow at top -->
  <ellipse cx="256" cy="0" rx="220" ry="60" fill="#38bdf8" opacity="0.08"/>

  <!-- Cylinder body -->
  <rect x="102" y="175" width="308" height="185" fill="url(#logo-body)"/>
  <rect x="378" y="175" width="32" height="185" fill="#0c4a6e" opacity="0.45"/>

  <!-- Bottom disc -->
  <ellipse cx="256" cy="364" rx="154" ry="34" fill="#0b1220" opacity="0.32"/>
  <ellipse cx="256" cy="358" rx="154" ry="34" fill="url(#logo-disc-bot)"/>
  <ellipse cx="256" cy="350" rx="120" ry="14" fill="#38bdf8" opacity="0.35"/>

  <!-- Middle disc -->
  <ellipse cx="256" cy="271" rx="154" ry="34" fill="#0b1220" opacity="0.28"/>
  <ellipse cx="256" cy="265" rx="154" ry="34" fill="url(#logo-disc-mid)"/>
  <ellipse cx="256" cy="257" rx="120" ry="14" fill="#7dd3fc" opacity="0.32"/>

  <!-- Top disc -->
  <ellipse cx="256" cy="178" rx="154" ry="34" fill="#0b1220" opacity="0.22"/>
  <ellipse cx="256" cy="172" rx="154" ry="34" fill="url(#logo-disc-top)"/>
  <ellipse cx="256" cy="161" rx="100" ry="12" fill="#bae6fd" opacity="0.4"/>
  <ellipse cx="240" cy="158" rx="50" ry="6" fill="#ffffff" opacity="0.22"/>
</svg>
